<svg width="318" height="98" viewBox="0 0 318 98" fill="none" xmlns="http://www.w3.org/2000/svg">
<path d="M35.144 37H27.416L26.84 23.992C26.68 20.888 26.6 18.12 26.6 15.688C26.6 13.832 26.648 12.072 26.744 10.408L21.608 33.496H14.168L8.69598 10.408C8.88798 13.192 8.98398 15.816 8.98398 18.28C8.98398 20.136 8.93598 22.072 8.83998 24.088L8.26398 37H0.583984L3.07998 3.73603H13.016L18.008 26.296L22.664 3.73603H32.648L35.144 37Z" fill="black"/>
<path d="M59.9664 29.608C59.9664 30.568 60.0944 31.272 60.3504 31.72C60.6384 32.168 61.0864 32.504 61.6944 32.728L60.1104 37.672C58.5424 37.544 57.2624 37.208 56.2704 36.664C55.2784 36.088 54.5104 35.192 53.9664 33.976C52.3024 36.536 49.7424 37.816 46.2864 37.816C43.7584 37.816 41.7424 37.08 40.2384 35.608C38.7344 34.136 37.9824 32.216 37.9824 29.848C37.9824 27.064 39.0064 24.936 41.0544 23.464C43.1024 21.992 46.0624 21.256 49.9344 21.256H52.5264V20.152C52.5264 18.648 52.2064 17.624 51.5664 17.08C50.9264 16.504 49.8064 16.216 48.2064 16.216C47.3744 16.216 46.3664 16.344 45.1824 16.6C43.9984 16.824 42.7824 17.144 41.5344 17.56L39.8064 12.568C41.4064 11.96 43.0384 11.496 44.7024 11.176C46.3984 10.856 47.9664 10.696 49.4064 10.696C53.0544 10.696 55.7264 11.448 57.4224 12.952C59.1184 14.456 59.9664 16.712 59.9664 19.72V29.608ZM48.4944 32.392C50.2224 32.392 51.5664 31.576 52.5264 29.944V25.432H50.6544C48.9264 25.432 47.6304 25.736 46.7664 26.344C45.9344 26.952 45.5184 27.896 45.5184 29.176C45.5184 30.2 45.7744 31 46.2864 31.576C46.8304 32.12 47.5664 32.392 48.4944 32.392Z" fill="black"/>
<path d="M81.9912 35.8C81.0632 36.44 79.9752 36.936 78.7272 37.288C77.5112 37.64 76.2952 37.816 75.0792 37.816C69.5112 37.784 66.7272 34.712 66.7272 28.6V16.792H63.1272V11.512H66.7272V5.99203L74.3112 5.12803V11.512H80.1672L79.3512 16.792H74.3112V28.504C74.3112 29.688 74.5032 30.536 74.8872 31.048C75.2712 31.56 75.8792 31.816 76.7112 31.816C77.5752 31.816 78.4872 31.544 79.4472 31L81.9912 35.8Z" fill="black"/>
<path d="M99.4509 10.696C101.659 10.696 103.387 11.368 104.635 12.712C105.883 14.056 106.507 15.944 106.507 18.376V37H98.9229V19.672C98.9229 18.392 98.7149 17.512 98.2989 17.032C97.8829 16.52 97.2909 16.264 96.5229 16.264C94.9869 16.264 93.5149 17.352 92.1069 19.528V37H84.5229V1.38403L92.1069 0.616028V14.248C93.1629 13.064 94.2829 12.184 95.4669 11.608C96.6509 11 97.9789 10.696 99.4509 10.696Z" fill="black"/>
<path d="M134.45 23.752C134.45 24.808 134.402 25.72 134.306 26.488H118.514C118.77 28.632 119.378 30.136 120.338 31C121.298 31.864 122.626 32.296 124.322 32.296C125.346 32.296 126.338 32.12 127.298 31.768C128.258 31.384 129.298 30.808 130.418 30.04L133.538 34.264C130.562 36.632 127.25 37.816 123.602 37.816C119.474 37.816 116.306 36.6 114.098 34.168C111.89 31.736 110.786 28.472 110.786 24.376C110.786 21.784 111.25 19.464 112.178 17.416C113.106 15.336 114.466 13.704 116.258 12.52C118.05 11.304 120.194 10.696 122.69 10.696C126.37 10.696 129.25 11.848 131.33 14.152C133.41 16.456 134.45 19.656 134.45 23.752ZM127.01 21.592C126.946 17.688 125.57 15.736 122.882 15.736C121.57 15.736 120.546 16.216 119.81 17.176C119.106 18.136 118.674 19.72 118.514 21.928H127.01V21.592Z" fill="black"/>
<path d="M160.214 37H153.638L153.302 33.784C151.446 36.472 148.87 37.816 145.574 37.816C143.238 37.816 141.462 37.112 140.246 35.704C139.062 34.296 138.47 32.328 138.47 29.8V11.512H146.054V28.84C146.054 30.088 146.246 30.968 146.63 31.48C147.046 31.96 147.67 32.2 148.502 32.2C150.102 32.2 151.478 31.208 152.63 29.224V11.512H160.214V37Z" fill="black"/>
<path d="M175.155 10.696C176.979 10.696 178.691 10.968 180.291 11.512C181.891 12.056 183.299 12.824 184.515 13.816L181.731 18.088C179.651 16.776 177.555 16.12 175.443 16.12C174.451 16.12 173.683 16.296 173.139 16.648C172.627 16.968 172.371 17.432 172.371 18.04C172.371 18.52 172.483 18.92 172.707 19.24C172.963 19.528 173.459 19.832 174.195 20.152C174.931 20.472 176.067 20.856 177.603 21.304C180.259 22.072 182.227 23.08 183.507 24.328C184.819 25.544 185.475 27.24 185.475 29.416C185.475 31.144 184.979 32.648 183.987 33.928C182.995 35.176 181.635 36.136 179.907 36.808C178.179 37.48 176.259 37.816 174.147 37.816C172.003 37.816 170.003 37.48 168.147 36.808C166.323 36.136 164.771 35.208 163.491 34.024L167.187 29.896C169.331 31.56 171.587 32.392 173.955 32.392C175.107 32.392 176.003 32.184 176.643 31.768C177.315 31.352 177.651 30.76 177.651 29.992C177.651 29.384 177.523 28.904 177.267 28.552C177.011 28.2 176.515 27.88 175.779 27.592C175.043 27.272 173.875 26.888 172.275 26.44C169.747 25.704 167.859 24.68 166.611 23.368C165.363 22.056 164.739 20.424 164.739 18.472C164.739 17 165.155 15.688 165.987 14.536C166.851 13.352 168.067 12.424 169.635 11.752C171.235 11.048 173.075 10.696 175.155 10.696Z" fill="black"/>
<path d="M143.832 62.92C145.912 62.92 147.752 63.224 149.352 63.832C150.984 64.44 152.52 65.352 153.96 66.568L150.216 71.032C149.224 70.264 148.248 69.688 147.288 69.304C146.328 68.92 145.304 68.728 144.216 68.728C141.976 68.728 140.2 69.672 138.888 71.56C137.608 73.448 136.968 76.36 136.968 80.296C136.968 84.168 137.608 87.048 138.888 88.936C140.2 90.792 142.008 91.72 144.312 91.72C145.528 91.72 146.632 91.496 147.624 91.048C148.616 90.568 149.688 89.896 150.84 89.032L154.344 93.544C153.096 94.792 151.576 95.816 149.784 96.616C148.024 97.416 146.072 97.816 143.928 97.816C140.856 97.816 138.184 97.144 135.912 95.8C133.64 94.456 131.864 92.472 130.584 89.848C129.336 87.192 128.712 84.008 128.712 80.296C128.712 76.68 129.352 73.56 130.632 70.936C131.944 68.312 133.736 66.328 136.008 64.984C138.312 63.608 140.92 62.92 143.832 62.92Z" fill="black"/>
<path d="M177.5 89.608C177.5 90.568 177.628 91.272 177.884 91.72C178.172 92.168 178.62 92.504 179.228 92.728L177.644 97.672C176.076 97.544 174.796 97.208 173.804 96.664C172.812 96.088 172.044 95.192 171.5 93.976C169.836 96.536 167.276 97.816 163.82 97.816C161.292 97.816 159.276 97.08 157.772 95.608C156.268 94.136 155.516 92.216 155.516 89.848C155.516 87.064 156.54 84.936 158.588 83.464C160.636 81.992 163.596 81.256 167.468 81.256H170.06V80.152C170.06 78.648 169.74 77.624 169.1 77.08C168.46 76.504 167.34 76.216 165.74 76.216C164.908 76.216 163.9 76.344 162.716 76.6C161.532 76.824 160.316 77.144 159.068 77.56L157.34 72.568C158.94 71.96 160.572 71.496 162.236 71.176C163.932 70.856 165.5 70.696 166.94 70.696C170.588 70.696 173.26 71.448 174.956 72.952C176.652 74.456 177.5 76.712 177.5 79.72V89.608ZM166.028 92.392C167.756 92.392 169.1 91.576 170.06 89.944V85.432H168.188C166.46 85.432 165.164 85.736 164.3 86.344C163.468 86.952 163.052 87.896 163.052 89.176C163.052 90.2 163.308 91 163.82 91.576C164.364 92.12 165.1 92.392 166.028 92.392Z" fill="black"/>
<path d="M197.365 70.792C198.293 70.792 199.141 70.904 199.909 71.128L198.709 78.472C197.749 78.248 196.981 78.136 196.405 78.136C194.901 78.136 193.749 78.664 192.949 79.72C192.181 80.744 191.573 82.296 191.125 84.376V97H183.541V71.512H190.165L190.789 76.456C191.365 74.696 192.229 73.32 193.381 72.328C194.565 71.304 195.893 70.792 197.365 70.792Z" fill="black"/>
<path d="M224.743 71.512L216.727 97H207.751L199.543 71.512H207.799L212.311 91.24L217.015 71.512H224.743Z" fill="black"/>
<path d="M246.594 89.608C246.594 90.568 246.722 91.272 246.978 91.72C247.266 92.168 247.714 92.504 248.322 92.728L246.738 97.672C245.17 97.544 243.89 97.208 242.898 96.664C241.906 96.088 241.138 95.192 240.594 93.976C238.93 96.536 236.37 97.816 232.914 97.816C230.386 97.816 228.37 97.08 226.866 95.608C225.362 94.136 224.61 92.216 224.61 89.848C224.61 87.064 225.634 84.936 227.682 83.464C229.73 81.992 232.69 81.256 236.562 81.256H239.154V80.152C239.154 78.648 238.834 77.624 238.194 77.08C237.554 76.504 236.434 76.216 234.834 76.216C234.002 76.216 232.994 76.344 231.81 76.6C230.626 76.824 229.41 77.144 228.162 77.56L226.434 72.568C228.034 71.96 229.666 71.496 231.33 71.176C233.026 70.856 234.594 70.696 236.034 70.696C239.682 70.696 242.354 71.448 244.05 72.952C245.746 74.456 246.594 76.712 246.594 79.72V89.608ZM235.122 92.392C236.85 92.392 238.194 91.576 239.154 89.944V85.432H237.282C235.554 85.432 234.258 85.736 233.394 86.344C232.562 86.952 232.146 87.896 232.146 89.176C232.146 90.2 232.402 91 232.914 91.576C233.458 92.12 234.194 92.392 235.122 92.392Z" fill="black"/>
<path d="M258.934 97.816C256.726 97.816 254.998 97.192 253.75 95.944C252.534 94.664 251.926 92.856 251.926 90.52V61.384L259.51 60.568V90.232C259.51 91.288 259.942 91.816 260.806 91.816C261.254 91.816 261.67 91.736 262.054 91.576L263.542 96.952C262.166 97.528 260.63 97.816 258.934 97.816Z" fill="black"/>
<path d="M281.344 70.696C283.552 70.696 285.28 71.368 286.528 72.712C287.776 74.056 288.4 75.944 288.4 78.376V97H280.816V79.672C280.816 78.392 280.608 77.512 280.192 77.032C279.776 76.52 279.184 76.264 278.416 76.264C276.88 76.264 275.408 77.352 274 79.528V97H266.416V61.384L274 60.616V74.248C275.056 73.064 276.176 72.184 277.36 71.608C278.544 71 279.872 70.696 281.344 70.696Z" fill="black"/>
<path d="M305.159 70.696C309.063 70.696 312.119 71.896 314.327 74.296C316.535 76.664 317.639 79.992 317.639 84.28C317.639 87 317.127 89.384 316.103 91.432C315.111 93.448 313.671 95.016 311.783 96.136C309.927 97.256 307.719 97.816 305.159 97.816C301.287 97.816 298.231 96.632 295.991 94.264C293.783 91.864 292.679 88.52 292.679 84.232C292.679 81.512 293.175 79.144 294.167 77.128C295.191 75.08 296.631 73.496 298.487 72.376C300.375 71.256 302.599 70.696 305.159 70.696ZM305.159 76.264C303.623 76.264 302.471 76.92 301.703 78.232C300.935 79.512 300.551 81.512 300.551 84.232C300.551 87.016 300.919 89.048 301.655 90.328C302.423 91.608 303.591 92.248 305.159 92.248C306.695 92.248 307.847 91.608 308.615 90.328C309.383 89.016 309.767 87 309.767 84.28C309.767 81.496 309.383 79.464 308.615 78.184C307.879 76.904 306.727 76.264 305.159 76.264Z" fill="black"/>
</svg>
